<svg xmlns="http://www.w3.org/2000/svg" width="1400" height="900" viewBox="0 0 1400 900"><rect width="100%" height="100%" fill="#0b1120"/><rect x="16" y="16" width="1368" height="868" rx="28" fill="#0f172a" stroke="#1f2937"/><rect x="0" y="0" width="1400" height="72" fill="#101624"/><text x="44" y="45" font-size="28" font-weight="700" fill="#f8fafc">Carouza</text><rect x="1180" y="20" rx="18" width="160" height="34" fill="#193344" stroke="#24566c"/><text x="1260" y="42" text-anchor="middle" font-size="15" fill="#cbd5e1">Sign in</text><circle cx="700" cy="160" r="180" fill="#14b8a6" opacity="0.12"/><rect x="560" y="120" rx="18" width="280" height="34" fill="#0f3d42" stroke="#237b7f"/><text x="700" y="143" text-anchor="middle" font-size="16" font-weight="700" fill="#6ee7d6">Phish n Cheats · Live event</text><text x="700" y="265" text-anchor="middle" font-size="54" font-weight="800" fill="#f8fafc">Get scammed on purpose.</text><text x="700" y="328" text-anchor="middle" font-size="54" font-weight="800" fill="#5eead4">Learn it for real.</text><text x="700" y="382" text-anchor="middle" font-size="21" fill="#94a3b8">Five fake listings are hidden among real ones on Carouza.</text><text x="700" y="412" text-anchor="middle" font-size="21" fill="#94a3b8">Find all 5, chat with the seller, and catch the red flags before you pay.</text><rect x="560" y="458" rx="24" width="280" height="50" fill="#14b8a6"/><text x="700" y="490" text-anchor="middle" font-size="20" font-weight="700" fill="#062b2a">I’m in — start hunting</text><rect x="120" y="600" width="340" height="170" rx="22" fill="#111827" stroke="#334155"/><circle cx="162" cy="642" r="18" fill="#123b43"/><text x="162" y="648" text-anchor="middle" font-size="16" fill="#5eead4">1</text><text x="152" y="690" font-size="24" font-weight="700" fill="#e2e8f0">Browse like normal</text><text x="152" y="722" font-size="16" fill="#94a3b8">Five fake listings are hidden</text><text x="152" y="746" font-size="16" fill="#94a3b8">among real ones.</text><rect x="510" y="600" width="340" height="170" rx="22" fill="#111827" stroke="#334155"/><circle cx="552" cy="642" r="18" fill="#123b43"/><text x="552" y="648" text-anchor="middle" font-size="16" fill="#5eead4">2</text><text x="542" y="690" font-size="24" font-weight="700" fill="#e2e8f0">Chat with the seller</text><text x="542" y="722" font-size="16" fill="#94a3b8">An AI scammer uses urgency,</text><text x="542" y="746" font-size="16" fill="#94a3b8">deposits, and off-platform nudges.</text><rect x="900" y="600" width="340" height="170" rx="22" fill="#111827" stroke="#334155"/><circle cx="942" cy="642" r="18" fill="#123b43"/><text x="942" y="648" text-anchor="middle" font-size="16" fill="#5eead4">3</text><text x="932" y="690" font-size="24" font-weight="700" fill="#e2e8f0">Spot it, report it</text><text x="932" y="722" font-size="16" fill="#94a3b8">We grade every move and show</text><text x="932" y="746" font-size="16" fill="#94a3b8">what you missed.</text></svg>
