<svg xmlns="http://www.w3.org/2000/svg" width="1400" height="900" viewBox="0 0 1400 900"><rect width="100%" height="100%" fill="#0b1120"/><rect x="16" y="16" width="1368" height="868" rx="28" fill="#0f172a" stroke="#1f2937"/><rect width="1400" height="72" fill="#101624"/><text x="44" y="45" font-size="28" font-weight="700" fill="#f8fafc">Carouza</text><rect x="1180" y="20" rx="18" width="160" height="34" fill="#193344" stroke="#24566c"/><text x="1260" y="42" text-anchor="middle" font-size="15" fill="#cbd5e1">Sign in</text><rect x="52" y="104" width="960" height="46" rx="23" fill="#111827" stroke="#334155"/><text x="84" y="133" font-size="18" fill="#64748b">Search for electronics, fashion, home…</text><rect x="52" y="170" width="91" height="34" rx="17" fill="#14b8a6"/><text x="98" y="192" text-anchor="middle" font-size="15" font-weight="700" fill="#062b2a">All</text><rect x="153" y="170" width="147" height="34" rx="17" fill="#111827" stroke="#334155"/><text x="226" y="192" text-anchor="middle" font-size="15" font-weight="700" fill="#cbd5e1">Electronics</text><rect x="310" y="170" width="112" height="34" rx="17" fill="#111827" stroke="#334155"/><text x="366" y="192" text-anchor="middle" font-size="15" font-weight="700" fill="#cbd5e1">Gaming</text><rect x="432" y="170" width="112" height="34" rx="17" fill="#111827" stroke="#334155"/><text x="488" y="192" text-anchor="middle" font-size="15" font-weight="700" fill="#cbd5e1">Luxury</text><rect x="554" y="170" width="119" height="34" rx="17" fill="#111827" stroke="#334155"/><text x="614" y="192" text-anchor="middle" font-size="15" font-weight="700" fill="#cbd5e1">Fashion</text><g transform="translate(52 240)"><rect width="280" height="248" rx="22" fill="#111827" stroke="#334155"/><rect x="16" y="16" width="248" height="130" rx="18" fill="#1f2937"/><rect x="16" y="160" width="100" height="24" rx="12" fill="#1b3a4b"/><text x="66" y="177" text-anchor="middle" font-size="12" fill="#93c5fd">Verified</text><text x="16" y="438"/><text x="16" y="198" font-size="20" font-weight="700" fill="#e2e8f0">AirPods Pro</text><text x="16" y="222" font-size="20" font-weight="700" fill="#e2e8f0">2nd gen</text><text x="16" y="244" font-size="22" font-weight="700" fill="#f8fafc">SGD 150</text></g><g transform="translate(362 240)"><rect width="280" height="248" rx="22" fill="#111827" stroke="#334155"/><rect x="16" y="16" width="248" height="130" rx="18" fill="#1f2937"/><rect x="16" y="160" width="100" height="24" rx="12" fill="#1b3a4b"/><text x="66" y="177" text-anchor="middle" font-size="12" fill="#93c5fd">Only 1 left!</text><text x="16" y="198" font-size="20" font-weight="700" fill="#e2e8f0">MacBook Air M2</text><text x="16" y="222" font-size="20" font-weight="700" fill="#e2e8f0">FLASH SALE</text><text x="16" y="244" font-size="22" font-weight="700" fill="#f8fafc">SGD 520</text></g><g transform="translate(672 240)"><rect width="280" height="248" rx="22" fill="#111827" stroke="#334155"/><rect x="16" y="16" width="248" height="130" rx="18" fill="#1f2937"/><rect x="16" y="160" width="100" height="24" rx="12" fill="#1b3a4b"/><text x="66" y="177" text-anchor="middle" font-size="12" fill="#93c5fd">Popular</text><text x="16" y="198" font-size="20" font-weight="700" fill="#e2e8f0">Specialized</text><text x="16" y="222" font-size="20" font-weight="700" fill="#e2e8f0">road bike</text><text x="16" y="244" font-size="22" font-weight="700" fill="#f8fafc">SGD 880</text></g><g transform="translate(52 520)"><rect width="280" height="248" rx="22" fill="#111827" stroke="#334155"/><rect x="16" y="16" width="248" height="130" rx="18" fill="#1f2937"/><rect x="16" y="160" width="100" height="24" rx="12" fill="#1b3a4b"/><text x="66" y="177" text-anchor="middle" font-size="12" fill="#93c5fd">100% original</text><text x="16" y="198" font-size="20" font-weight="700" fill="#e2e8f0">Louis Vuitton</text><text x="16" y="222" font-size="20" font-weight="700" fill="#e2e8f0">Neverfull</text><text x="16" y="244" font-size="22" font-weight="700" fill="#f8fafc">SGD 250</text></g><g transform="translate(362 520)"><rect width="280" height="248" rx="22" fill="#111827" stroke="#334155"/><rect x="16" y="16" width="248" height="130" rx="18" fill="#1f2937"/><rect x="16" y="160" width="100" height="24" rx="12" fill="#1b3a4b"/><text x="66" y="177" text-anchor="middle" font-size="12" fill="#93c5fd">Fast deal</text><text x="16" y="198" font-size="20" font-weight="700" fill="#e2e8f0">Nintendo Switch</text><text x="16" y="222" font-size="20" font-weight="700" fill="#e2e8f0">OLED</text><text x="16" y="244" font-size="22" font-weight="700" fill="#f8fafc">SGD 240</text></g><rect x="1040" y="104" width="300" height="632" rx="24" fill="#0f1b2d" stroke="#334155"/><text x="1072" y="142" font-size="24" font-weight="700" fill="#f8fafc">Trending now</text><text x="1072" y="176" font-size="16" fill="#94a3b8">Hidden among these listings are scams.</text><text x="1072" y="200" font-size="16" fill="#94a3b8">Tap one and chat to test your instincts.</text><rect x="1072" y="238" width="236" height="144" rx="18" fill="#111827" stroke="#334155"/><text x="1096" y="275" font-size="18" font-weight="700" fill="#5eead4">Scam cues to watch</text><text x="1096" y="310" font-size="15" fill="#cbd5e1">• urgency and scarcity</text><text x="1096" y="336" font-size="15" fill="#cbd5e1">• asks to move off-platform</text><text x="1096" y="362" font-size="15" fill="#cbd5e1">• secure-link or deposit requests</text><rect x="52" y="786" width="1288" height="42" rx="21" fill="#10242c" stroke="#24566c"/><text x="696" y="812" text-anchor="middle" font-size="16" fill="#b6f7ee">Hidden among these listings are scams. Tap one and chat to test your instincts.</text></svg>
