<svg xmlns="http://www.w3.org/2000/svg" width="1400" height="900" viewBox="0 0 1400 900"><rect width="100%" height="100%" fill="#0b1120"/><rect x="16" y="16" width="1368" height="868" rx="28" fill="#0f172a" stroke="#1f2937"/><rect width="1400" height="72" fill="#101624"/><text x="44" y="45" font-size="28" font-weight="700" fill="#f8fafc">Carouza</text><rect x="1180" y="20" rx="18" width="160" height="34" fill="#193344" stroke="#24566c"/><text x="1260" y="42" text-anchor="middle" font-size="15" fill="#cbd5e1">Sign in</text><rect x="200" y="96" width="1000" height="680" rx="24" fill="#0f172a" stroke="#334155"/><rect x="200" y="96" width="1000" height="72" rx="24" fill="#111827"/><circle cx="246" cy="132" r="18" fill="#334155"/><text x="278" y="126" font-size="18" font-weight="700" fill="#f8fafc">techdeals_sg</text><text x="278" y="149" font-size="14" fill="#94a3b8">MacBook Air M2, 256GB (sealed) — FLASH SALE</text><rect x="240" y="200" width="420" height="60" rx="22" fill="#1e293b"/><text x="258" y="225" font-size="17" fill="#e2e8f0">hi, still avail.</text><text x="258" y="246" font-size="17" fill="#e2e8f0">a few ppl asking now ah</text><rect x="760" y="278" width="360" height="60" rx="22" fill="#14b8a6"/><text x="778" y="303" font-size="17" fill="#062b2a">Can meetup first</text><text x="778" y="324" font-size="17" fill="#062b2a">to check the item?</text><rect x="240" y="356" width="420" height="60" rx="22" fill="#1e293b"/><text x="258" y="381" font-size="17" fill="#e2e8f0">can, but if you want i need</text><text x="258" y="402" font-size="17" fill="#e2e8f0">payment first to lock it in</text><rect x="760" y="434" width="360" height="60" rx="22" fill="#14b8a6"/><text x="778" y="459" font-size="17" fill="#062b2a">Why do I need to pay</text><text x="778" y="480" font-size="17" fill="#062b2a">before seeing it?</text><rect x="240" y="512" width="420" height="60" rx="22" fill="#1e293b"/><text x="258" y="537" font-size="17" fill="#e2e8f0">got many buyers — paynow first,</text><text x="258" y="558" font-size="17" fill="#e2e8f0">then i reserve 10 min only</text><text x="240" y="618" font-size="16" font-weight="700" fill="#cbd5e1">Suggested replies</text><rect x="240" y="638" width="240" height="38" rx="19" fill="#111827" stroke="#334155"/><text x="360" y="662" text-anchor="middle" font-size="15" font-weight="700" fill="#e2e8f0">Can meetup at an MRT first?</text><rect x="492" y="638" width="240" height="38" rx="19" fill="#111827" stroke="#334155"/><text x="612" y="662" text-anchor="middle" font-size="15" font-weight="700" fill="#e2e8f0">I only pay after inspection</text><rect x="744" y="638" width="170" height="38" rx="19" fill="#111827" stroke="#334155"/><text x="829" y="662" text-anchor="middle" font-size="15" font-weight="700" fill="#e2e8f0">Report this listing</text><rect x="926" y="638" width="170" height="38" rx="19" fill="#14b8a6"/><text x="1011" y="662" text-anchor="middle" font-size="15" font-weight="700" fill="#062b2a">Make offer</text><rect x="236" y="704" width="760" height="46" rx="23" fill="#111827" stroke="#334155"/><text x="264" y="733" font-size="17" fill="#64748b">Type a message…</text><rect x="1020" y="704" width="132" height="46" rx="23" fill="#14b8a6"/><text x="1086" y="733" text-anchor="middle" font-size="18" font-weight="700" fill="#062b2a">Send</text></svg>
