<svg xmlns="http://www.w3.org/2000/svg" width="1400" height="900" viewBox="0 0 1400 900"><rect width="100%" height="100%" fill="#0b1120"/><rect x="16" y="16" width="1368" height="868" rx="28" fill="#0f172a" stroke="#1f2937"/><rect width="1400" height="72" fill="#101624"/><text x="44" y="45" font-size="28" font-weight="700" fill="#f8fafc">Carouza</text><rect x="1180" y="20" rx="18" width="160" height="34" fill="#193344" stroke="#24566c"/><text x="1260" y="42" text-anchor="middle" font-size="15" fill="#cbd5e1">Sign in</text><rect x="72" y="104" width="1220" height="240" rx="28" fill="#111827" stroke="#334155"/><circle cx="240" cy="224" r="84" fill="none" stroke="#1f2937" stroke-width="16"/><circle cx="240" cy="224" r="84" fill="none" stroke="#14b8a6" stroke-width="16" stroke-linecap="round" stroke-dasharray="420 160" transform="rotate(-90 240 224)"/><text x="240" y="220" text-anchor="middle" font-size="42" font-weight="800" fill="#f8fafc">78</text><text x="240" y="247" text-anchor="middle" font-size="14" fill="#94a3b8">/ 100</text><text x="386" y="178" font-size="16" fill="#94a3b8">Scam-resistance level</text><text x="386" y="226" font-size="44" font-weight="800" fill="#f8fafc">Sharp</text><text x="386" y="266" font-size="20" fill="#cbd5e1">Sharp eye — most scams will not get past you.</text><rect x="386" y="286" width="480" height="34" rx="17" fill="#103b38"/><text x="626" y="307" text-anchor="middle" font-size="15" fill="#9cf7ec">A scam vaccine: safe exposure now builds real resistance later.</text><rect x="72" y="370" width="285" height="92" rx="20" fill="#111827" stroke="#334155"/><text x="96" y="416" font-size="34" font-weight="800" fill="#f8fafc">4/5</text><text x="96" y="442" font-size="15" fill="#94a3b8">Scams found</text><rect x="377" y="370" width="285" height="92" rx="20" fill="#111827" stroke="#334155"/><text x="401" y="416" font-size="34" font-weight="800" fill="#5eead4">3</text><text x="401" y="442" font-size="15" fill="#94a3b8">Defended</text><rect x="682" y="370" width="285" height="92" rx="20" fill="#111827" stroke="#334155"/><text x="706" y="416" font-size="34" font-weight="800" fill="#fb7185">1</text><text x="706" y="442" font-size="15" fill="#94a3b8">Fell for</text><rect x="987" y="370" width="285" height="92" rx="20" fill="#111827" stroke="#334155"/><text x="1011" y="416" font-size="34" font-weight="800" fill="#f8fafc">7/10</text><text x="1011" y="442" font-size="15" fill="#94a3b8">Red flags spotted</text><text x="72" y="520" font-size="28" font-weight="800" fill="#f8fafc">The five scams</text><rect x="72" y="548" width="1220" height="48" rx="16" fill="#111827" stroke="#334155"/><text x="96" y="577" font-size="18" font-weight="700" fill="#f8fafc">Off-platform migration</text><text x="480" y="577" font-size="15" fill="#94a3b8">84/100</text><rect x="1088" y="558" width="160" height="28" rx="14" fill="#103b38"/><text x="1168" y="576" text-anchor="middle" font-size="14" font-weight="700" fill="#5eead4">Defended</text><rect x="72" y="610" width="1220" height="48" rx="16" fill="#111827" stroke="#334155"/><text x="96" y="639" font-size="18" font-weight="700" fill="#f8fafc">Urgency / flash sale</text><text x="480" y="639" font-size="15" fill="#94a3b8">42/100</text><rect x="1088" y="620" width="160" height="28" rx="14" fill="#3b1622"/><text x="1168" y="638" text-anchor="middle" font-size="14" font-weight="700" fill="#fb7185">Fell for it</text><rect x="72" y="672" width="1220" height="48" rx="16" fill="#111827" stroke="#334155"/><text x="96" y="701" font-size="18" font-weight="700" fill="#f8fafc">Deposit before meetup</text><text x="480" y="701" font-size="15" fill="#94a3b8">76/100</text><rect x="1088" y="682" width="160" height="28" rx="14" fill="#103b38"/><text x="1168" y="700" text-anchor="middle" font-size="14" font-weight="700" fill="#5eead4">Defended</text><rect x="72" y="734" width="1220" height="48" rx="16" fill="#111827" stroke="#334155"/><text x="96" y="763" font-size="18" font-weight="700" fill="#f8fafc">Phishing payment link</text><text x="480" y="763" font-size="15" fill="#94a3b8">82/100</text><rect x="1088" y="744" width="160" height="28" rx="14" fill="#103b38"/><text x="1168" y="762" text-anchor="middle" font-size="14" font-weight="700" fill="#5eead4">Defended</text><rect x="72" y="796" width="1220" height="48" rx="16" fill="#111827" stroke="#334155"/><text x="96" y="825" font-size="18" font-weight="700" fill="#f8fafc">Counterfeit item</text><rect x="1088" y="806" width="160" height="28" rx="14" fill="#1f2937"/><text x="1168" y="824" text-anchor="middle" font-size="14" font-weight="700" fill="#94a3b8">Not found</text></svg>
